<svg xmlns="http://www.w3.org/2000/svg" viewBox="0 0 120 25" width="120" height="25"><path d="M12.42,21.26c-4.39,0-7.57-4.16-7.57-8.82c0-4.19,2.57-8.69,7.47-8.69c2.23,0,4.87,0.91,6.15,3.82l2.98-1.99
              c-1.52-3.08-4.73-5.24-8.99-5.24C5.22,0.33,1,6.48,1,12.3c0,6.08,4.66,12.37,11.29,12.37c3.75,0,8.04-1.99,9.53-5.58l-3.14-1.79
              C17.46,20.11,14.72,21.26,12.42,21.26z" fill="#352b27"></path><path d="M36.93,0.47l-9.67,24h4.06l2.5-6.52h9.26l2.57,6.52h4.02l-9.63-24H36.93z M34.5,15.14l3.99-10.44l3.85,10.44
              H34.5z" fill="#352b27"></path><path d="M75.16,8.28c0-3.85-3.11-7.81-7.44-7.81H57.28v24h3.79v-8.35h5.54l5.27,8.35h4.29l-5.71-9.13
              C73.3,14.43,75.16,11.49,75.16,8.28z M67.69,12.77h-6.62V3.81h6.42c1.99,0,3.82,1.99,3.82,4.46
              C71.31,10.71,69.82,12.77,67.69,12.77z" fill="#352b27"></path><rect x="84.59" y="0.5" width="3.79" height="23.96" fill="#352b27"></rect><polygon points="115.18,0.5 115.18,17.77 101.46,0.47 98.48,0.47 98.48,24.47 102.27,24.47 102.27,7.57 115.86,24.47 
              119,24.47 119,0.5 	" fill="#352b27"></polygon></svg>